<?xml version="1.0" encoding="utf-8"?>
<svg width="211" height="72.862" viewBox="0 0 211 72.862" fill="none" xmlns="http://www.w3.org/2000/svg">
  <g id="Layer_1-2">
    <g id="Group">
      <path d="M3.66744 44.4656L3.66744 11.0838L24.5963 11.0838L24.5963 15.4195L8.70405 15.4195L8.70405 25.5906L23.5042 25.5906L23.5042 29.91L8.70405 29.91L8.70405 40.1299L24.7919 40.1299L24.7919 44.4656L3.66744 44.4656ZM49.5511 19.8531Q49.2903 17.5385 47.3996 16.259Q45.5088 14.9794 42.6401 14.9794Q39.5594 14.9794 37.7501 16.3812Q35.9409 17.783 35.9409 19.9183Q35.9409 21.5156 36.9107 22.5181Q37.8805 23.5205 39.2905 24.091Q40.7004 24.6615 42.0044 25.0038L45.2643 25.8514Q46.8617 26.2425 48.5406 26.919Q50.2194 27.5954 51.6538 28.6794Q53.0882 29.7633 53.9765 31.377Q54.8648 32.9906 54.8648 35.24Q54.8648 38.0598 53.406 40.2766Q51.9472 42.4934 49.1925 43.7566Q46.4379 45.0198 42.5097 45.0198Q36.9026 45.0198 33.5856 42.3956Q30.2686 39.7713 30.0241 35.24L35.077 35.24Q35.3052 37.962 37.4404 39.2823Q39.5757 40.6026 42.4771 40.6026Q45.6881 40.6026 47.7826 39.1193Q49.8771 37.636 49.8771 35.1911Q49.8771 33.7078 49.0377 32.7543Q48.1983 31.8008 46.772 31.1895Q45.3458 30.5783 43.5528 30.1056L39.6083 29.0298Q35.5823 27.9377 33.2514 25.8188Q30.9206 23.6998 30.9206 20.2117Q30.9206 17.3266 32.4853 15.175Q34.0501 13.0235 36.7314 11.8254Q39.4127 10.6274 42.7542 10.6274Q46.1445 10.6274 48.7443 11.8173Q51.3441 13.0072 52.8437 15.0935Q54.3433 17.1799 54.4085 19.8531L49.5511 19.8531ZM79.0862 19.8531Q78.8254 17.5385 76.9347 16.259Q75.0439 14.9794 72.1751 14.9794Q69.0945 14.9794 67.2852 16.3812Q65.476 17.783 65.476 19.9183Q65.476 21.5156 66.4458 22.5181Q67.4156 23.5205 68.8256 24.091Q70.2355 24.6615 71.5395 25.0038L74.7994 25.8514Q76.3968 26.2425 78.0756 26.919Q79.7545 27.5954 81.1889 28.6794Q82.6233 29.7633 83.5116 31.377Q84.3999 32.9906 84.3999 35.24Q84.3999 38.0598 82.9411 40.2766Q81.4823 42.4934 78.7276 43.7566Q75.973 45.0198 72.0447 45.0198Q66.4376 45.0198 63.1207 42.3956Q59.8037 39.7713 59.5592 35.24L64.6121 35.24Q64.8403 37.962 66.9755 39.2823Q69.1108 40.6026 72.0121 40.6026Q75.2232 40.6026 77.3177 39.1193Q79.4122 37.636 79.4122 35.1911Q79.4122 33.7078 78.5728 32.7543Q77.7334 31.8008 76.3071 31.1895Q74.8809 30.5783 73.0879 30.1056L69.1434 29.0298Q65.1174 27.9377 62.7865 25.8188Q60.4557 23.6998 60.4557 20.2117Q60.4557 17.3266 62.0204 15.175Q63.5852 13.0235 66.2665 11.8254Q68.9478 10.6274 72.2892 10.6274Q75.6796 10.6274 78.2794 11.8173Q80.8792 13.0072 82.3788 15.0935Q83.8783 17.1799 83.9435 19.8531L79.0862 19.8531ZM90.4145 44.4656L90.4145 11.0838L111.343 11.0838L111.343 15.4195L95.4511 15.4195L95.4511 25.5906L110.251 25.5906L110.251 29.91L95.4511 29.91L95.4511 40.1299L111.539 40.1299L111.539 44.4656L90.4145 44.4656ZM145.035 11.0838L145.035 44.4656L140.406 44.4656L123.438 19.9835L123.128 19.9835L123.128 44.4656L118.091 44.4656L118.091 11.0838L122.753 11.0838L139.737 35.5986L140.047 35.5986L140.047 11.0838L145.035 11.0838ZM180.096 21.9394L175.01 21.9394Q174.391 18.6958 171.97 16.9599Q169.55 15.2239 166.355 15.2239Q163.486 15.2239 161.204 16.6746Q158.922 18.1253 157.61 20.9207Q156.298 23.7161 156.298 27.7747Q156.298 31.8496 157.618 34.6532Q158.939 37.4568 161.212 38.8911Q163.486 40.3255 166.339 40.3255Q169.501 40.3255 171.929 38.614Q174.358 36.9026 175.01 33.7078L180.096 33.7241Q179.558 37.0167 177.683 39.5431Q175.809 42.0696 172.891 43.4958Q169.973 44.922 166.306 44.922Q161.97 44.922 158.58 42.8601Q155.19 40.7982 153.242 36.9515Q151.294 33.1047 151.294 27.7747Q151.294 22.4284 153.25 18.5898Q155.206 14.7512 158.596 12.6893Q161.987 10.6274 166.306 10.6274Q169.843 10.6274 172.753 11.964Q175.662 13.3006 177.594 15.8352Q179.525 18.3698 180.096 21.9394ZM186.126 44.4656L186.126 11.0838L207.055 11.0838L207.055 15.4195L191.163 15.4195L191.163 25.5906L205.963 25.5906L205.963 29.91L191.163 29.91L191.163 40.1299L207.251 40.1299L207.251 44.4656L186.126 44.4656Z" transform="" fill="#FFFFFF" />
    </g>
    <g id="Group" transform="translate(18.79 49.862)">
      <path d="M0.993324 5.69148L0.993324 4.56392L10.9601 4.56392L10.9601 5.69148L6.60426 5.69148L6.60426 18.3094L5.34918 18.3094L5.34918 5.69148L0.993324 5.69148ZM13.779 18.3094L13.779 4.56392L18.2154 4.56392Q19.6786 4.56392 20.6618 5.09078Q21.6451 5.61765 22.1451 6.54721Q22.6451 7.47677 22.6451 8.67816Q22.6451 10.054 21.9874 11.0608Q21.3296 12.0675 20.0477 12.4904L23.2223 18.3094L21.7726 18.3094L18.7591 12.732Q18.504 12.7521 18.2355 12.7521L15.0341 12.7521L15.0341 18.3094L13.779 18.3094ZM15.0341 11.6044L18.202 11.6044Q19.8195 11.6044 20.6148 10.8158Q21.4102 10.0272 21.4102 8.67816Q21.4102 7.32912 20.6115 6.5103Q19.8128 5.69148 18.1819 5.69148L15.0341 5.69148L15.0341 11.6044ZM34.867 4.56392L36.1221 4.56392L36.1221 13.6649Q36.1221 15.0676 35.4677 16.1717Q34.8133 17.2758 33.6388 17.91Q32.4642 18.5443 30.9138 18.5443Q29.3702 18.5443 28.1956 17.91Q27.0211 17.2758 26.3633 16.1717Q25.7056 15.0676 25.7056 13.6649L25.7056 4.56392L26.9607 4.56392L26.9607 13.5777Q26.9607 14.6717 27.4506 15.5274Q27.9406 16.3831 28.8299 16.8731Q29.7192 17.363 30.9138 17.363Q32.1152 17.363 33.0012 16.8731Q33.8871 16.3831 34.3771 15.5274Q34.867 14.6717 34.867 13.5777L34.867 4.56392ZM39.7732 18.3094L39.7732 4.56392L47.7467 4.56392L47.7467 5.69148L41.0283 5.69148L41.0283 10.8662L47.3238 10.8662L47.3238 11.9937L41.0283 11.9937L41.0283 17.1818L47.8809 17.1818L47.8809 18.3094L39.7732 18.3094ZM56.304 4.56392L57.7537 4.56392L62.7405 16.5375L62.8613 16.5375L67.848 4.56392L69.2978 4.56392L69.2978 18.3094L68.1165 18.3094L68.1165 7.21502L68.0091 7.21502L63.3714 18.3094L62.2304 18.3094L57.5926 7.21502L57.4853 7.21502L57.4853 18.3094L56.304 18.3094L56.304 4.56392ZM74.204 4.56392L74.204 18.3094L72.9489 18.3094L72.9489 4.56392L74.204 4.56392ZM88.5602 4.56392L88.5602 18.3094L87.3387 18.3094L79.2176 6.7989L79.1102 6.7989L79.1102 18.3094L77.8551 18.3094L77.8551 4.56392L79.0699 4.56392L87.2179 16.0878L87.3252 16.0878L87.3252 4.56392L88.5602 4.56392ZM93.4664 4.56392L93.4664 18.3094L92.2113 18.3094L92.2113 4.56392L93.4664 4.56392ZM97.1175 4.56392L98.5673 4.56392L103.554 16.5375L103.675 16.5375L108.662 4.56392L110.111 4.56392L110.111 18.3094L108.93 18.3094L108.93 7.21502L108.823 7.21502L104.185 18.3094L103.044 18.3094L98.4062 7.21502L98.2988 7.21502L98.2988 18.3094L97.1175 18.3094L97.1175 4.56392ZM113.783 18.3094L112.467 18.3094L117.467 4.56392L118.81 4.56392L123.81 18.3094L122.494 18.3094L121.024 14.1683L115.252 14.1683L113.783 18.3094ZM115.655 13.0407L120.622 13.0407L118.185 6.19485L118.091 6.19485L115.655 13.0407ZM126.166 18.3094L126.166 4.56392L127.421 4.56392L127.421 17.1818L133.971 17.1818L133.971 18.3094L126.166 18.3094ZM138.052 4.56392L138.052 18.3094L136.797 18.3094L136.797 4.56392L138.052 4.56392ZM149.166 8.00028Q149.052 6.85259 148.153 6.17472Q147.254 5.49684 145.891 5.49684Q144.455 5.49684 143.552 6.2217Q142.649 6.94656 142.649 8.05398Q142.649 8.77883 143.055 9.26543Q143.461 9.75202 144.092 10.0608Q144.723 10.3695 145.388 10.5574L146.837 10.9735Q147.495 11.1548 148.153 11.4366Q148.811 11.7185 149.358 12.1447Q149.905 12.5709 150.237 13.185Q150.569 13.7991 150.569 14.6582Q150.569 15.7589 149.999 16.6382Q149.428 17.5174 148.361 18.0308Q147.294 18.5443 145.804 18.5443Q143.703 18.5443 142.448 17.5241Q141.193 16.5039 141.079 14.873L142.367 14.873Q142.468 16.0945 143.441 16.7456Q144.415 17.3966 145.804 17.3966Q146.831 17.3966 147.633 17.0509Q148.435 16.7053 148.895 16.0845Q149.354 15.4636 149.354 14.6381Q149.354 13.5844 148.559 13.0273Q147.764 12.4702 146.482 12.1011L144.837 11.6179Q143.22 11.1413 142.327 10.2856Q141.435 9.42986 141.435 8.10767Q141.435 7.00025 142.029 6.15794Q142.623 5.31562 143.639 4.84245Q144.656 4.36928 145.925 4.36928Q147.207 4.36928 148.193 4.84245Q149.18 5.31562 149.757 6.13445Q150.334 6.95327 150.381 8.00028L149.166 8.00028ZM153.596 4.56392L155.046 4.56392L160.033 16.5375L160.153 16.5375L165.14 4.56392L166.59 4.56392L166.59 18.3094L165.409 18.3094L165.409 7.21502L165.301 7.21502L160.663 18.3094L159.522 18.3094L154.885 7.21502L154.777 7.21502L154.777 18.3094L153.596 18.3094L153.596 4.56392Z" transform="" fill="#FFFFFF" />
    </g>
  </g>
</svg>