
<svg width="43.9798346px" height="13.1939569px" viewBox="0 0 43.9798346 13.1939569" version="1.1" xmlns="http://www.w3.org/2000/svg" xmlns:xlink="http://www.w3.org/1999/xlink">
    <g id="Cart" stroke="none" stroke-width="1" fill="none" fill-rule="evenodd">
        <g id="Cart-(original)" transform="translate(-1740.5819, -990.2985)" fill="#FFFFFF">
            <g id="Contact-Info" transform="translate(1202, 222)">
                <g id="Group-6" transform="translate(0, 705)">
                    <g id="Group" transform="translate(499, 60)">
                        <g transform="translate(39.5819, 3.2985)">
                            <polygon id="Path" points="19.0579158 13.0035772 15.49522 13.0035772 17.7236238 0.231522338 21.2861347 0.231522338"></polygon>
                            <path d="M31.9730434,0.54378814 C31.2702844,0.285349241 30.1557586,0 28.7776392,0 C25.2593177,0 22.7818063,1.73910047 22.7665826,4.22541983 C22.7373355,6.05985047 24.5404124,7.07873465 25.8890088,7.69039396 C27.2673114,8.31546268 27.7359074,8.72341864 27.7359074,9.28052502 C27.7218852,10.1362099 26.6221208,10.530572 25.5963539,10.530572 C24.1739481,10.530572 23.4118633,10.3272325 22.2536059,9.85122435 C22.2536059,9.85122435 22.0972525,9.78320158 21.7845457,9.64715606 C21.4521566,11.5584881 21.2859621,12.5141541 21.2859621,12.5141541 C22.1215801,12.8670106 23.6610645,13.1801837 25.2593177,13.1939569 C28.9975911,13.1939569 31.431281,11.4817678 31.4600667,8.83215782 C31.4742751,7.37822494 30.5222212,6.26410176 28.4695751,5.35377389 C27.2234864,4.76939084 26.4603847,4.37530081 26.4603847,3.77741692 C26.4750541,3.23381165 27.1058505,2.67706928 28.5124783,2.67706928 C29.6706424,2.64979368 30.5216689,2.90786721 31.1663034,3.16612335 C31.1663034,3.16612335 31.2736968,3.21133988 31.4884836,3.30177293 L31.9730434,0.54378814 L31.9730434,0.54378814 L31.9730434,0.54378814 C31.9730434,0.54378814 31.9730434,0.54378814 31.9730434,0.54378814 Z" id="Path"></path>
                            <path d="M38.3499179,0.231522338 L41.1055985,0.231522338 L43.9798346,13.0033771 C41.7806777,13.0033771 40.6810993,13.0033771 40.6810993,13.0033771 C40.6810993,13.0033771 40.3582754,11.5359434 40.2560476,11.0874852 C40.2560476,11.0874852 35.6817947,11.0874852 35.6817947,11.0874852 C35.5495808,11.4270211 34.9341021,13.0033771 34.9341021,13.0033771 C34.9341021,13.0033771 33.6880427,13.0033771 31.1959238,13.0033771 C34.723838,5.19524809 36.487795,1.29118359 36.487795,1.29118359 C36.854444,0.462319996 37.5000918,0.231522338 38.3499179,0.231522338 C38.3499179,0.231522338 38.3499179,0.231522338 38.3499179,0.231522338 Z M38.1303058,4.90538503 C38.1303058,4.90538503 37.0012942,7.74510484 36.7079003,8.47882195 C36.7079003,8.47882195 39.6692356,8.47882195 39.6692356,8.47882195 C39.5227215,7.84034361 38.848009,4.78305344 38.848009,4.78305344 C38.848009,4.78305344 38.5990879,3.68261448 38.5990879,3.68261448 C38.4941851,3.9659573 38.3425995,4.35557716 38.2402802,4.61839355 C38.1709915,4.7964633 38.1243085,4.916333 38.1303058,4.90538503 C38.1303058,4.90538503 38.1303058,4.90538503 38.1303058,4.90538503 Z" id="Shape"></path>
                            <path d="M0.0586418015,0.231522338 C3.87995396,0.231522338 5.79061003,0.231522338 5.79061003,0.231522338 C6.56764175,0.258433495 7.19806873,0.489413767 7.40316688,1.30514035 C7.40316688,1.30514035 8.64888943,7.17341357 8.64888943,7.17341357 C8.64898162,7.17377885 8.64916696,7.17414336 8.64925914,7.17450826 C8.64925914,7.17450826 8.77633452,7.76326981 9.03048527,8.94079292 L12.5195617,0.231522338 L16.2868078,0.231522338 L10.6868663,12.9900534 L6.91943696,12.9900534 C4.80249505,5.59152447 3.74402409,1.89226001 3.74402409,1.89226001 C2.6484115,1.29848155 1.39801095,0.820922201 0,0.489595589 C0,0.489595589 0.0195472672,0.403571172 0.0586418015,0.231522338 L0.0586418015,0.231522338 Z" id="Path"></path>
                        </g>
                    </g>
                </g>
            </g>
        </g>
    </g>
</svg>