
<svg width="28px" height="28px" viewBox="0 0 28 28" version="1.1" xmlns="http://www.w3.org/2000/svg" xmlns:xlink="http://www.w3.org/1999/xlink">
    <g id="Contact" stroke="none" stroke-width="1" fill="none" fill-rule="evenodd">
        <g id="Contact-(original)" transform="translate(-904, -1132)" fill="#000000" fill-rule="nonzero">
            <g id="Group-6" transform="translate(891, 1117)">
                <g id="paper-plane-svgrepo-com" transform="translate(13, 15)">
                    <path d="M27.4785163,0.000876287047 C27.3112423,0.000876287047 27.1089372,0.0481957876 26.8733524,0.148092511 L0.746209538,11.2410102 C-0.194378114,11.6405971 -0.253931149,12.4099772 0.613966767,12.9506463 L7.99679163,17.5520295 C8.86468955,18.0926987 10.0119613,19.2520264 10.5470628,20.1274372 L14.9723788,27.3778362 C15.226355,27.7931963 15.532878,28 15.8280158,28 C16.153806,28 16.4647078,27.7493819 16.6775224,27.2542797 L27.8507228,1.1365443 C28.1528669,0.428504366 27.9803382,0.000876287047 27.4776405,0 L27.4785163,0.000876287047 Z M8.9102301,15.9913623 L2.9260258,12.2610084 L23.0032808,3.73824054 L10.0802721,16.887804 C9.68529535,16.5372891 9.28418813,16.2244547 8.90935432,15.9913623 L8.9102301,15.9913623 Z M15.6747543,25.0644384 L12.1050753,19.2178512 C11.8940123,18.8725941 11.6163901,18.5045536 11.306364,18.1391419 L24.2898016,4.92911464 L15.6747543,25.0644384 Z" id="Shape"></path>
                </g>
            </g>
        </g>
    </g>
</svg>