
<svg width="25px" height="28px" viewBox="0 0 25 28" version="1.1" xmlns="http://www.w3.org/2000/svg" xmlns:xlink="http://www.w3.org/1999/xlink">
    <g id="Home" stroke="none" stroke-width="1" fill="none" fill-rule="evenodd">
        <g id="Home-(original)" transform="translate(-1828, -73)" fill="#FFFFFF">
            <g id="Header" transform="translate(63, 51)">
                <g id="shopping-bag-svgrepo-com" transform="translate(1765, 22)">
                    <path d="M8.33333425,12.6 C8.33333425,13.37322 7.71151484,14 6.94444543,14 C6.17738992,14 5.55555662,13.37322 5.55555662,12.6 C5.55555662,11.826794 6.17738992,11.2 6.94444543,11.2 C7.71151484,11.2 8.33333425,11.826794 8.33333425,12.6 Z" id="Path" fill-rule="nonzero"></path>
                    <path d="M18.0555559,14 C18.8226392,14 19.4444447,13.37322 19.4444447,12.6 C19.4444447,11.826794 18.8226392,11.2 18.0555559,11.2 C17.2884726,11.2 16.6666671,11.826794 16.6666671,12.6 C16.6666671,13.37322 17.2884726,14 18.0555559,14 Z" id="Path" fill-rule="nonzero"></path>
                    <path d="M5.69865384,7 L5.55555662,7 C5.55555662,3.134012 8.66469534,0 12.5,0 C16.3352783,0 19.4444447,3.134012 19.4444447,7 L19.3013892,7 C20.0001392,7.00007 20.6058336,7.0021 21.1087502,7.044212 C21.6669446,7.09093 22.2218057,7.194138 22.7540279,7.472864 C23.515139,7.871346 24.1355556,8.49681 24.5308334,9.263912 C24.8073611,9.800476 24.9097222,10.359734 24.9561111,10.92238 C25,11.45529 25,12.102622 25,12.85298 L25,17.6449 C25,19.1877 25,20.4323 24.9170833,21.43932 C24.8316667,22.47658 24.6509722,23.38686 24.2181945,24.22686 C23.5593056,25.50534 22.525139,26.54778 21.2568058,27.21194 C20.4234725,27.64818 19.520417,27.83032 18.4913892,27.91642 C17.4922226,28 16.2577783,28 14.7272228,28 L10.2727786,28 C8.742237,28 7.50772318,28 6.50855657,27.91642 C5.47965385,27.83032 4.57658445,27.64818 3.74323728,27.21194 C2.47487624,26.54778 1.44070963,25.50534 0.781848551,24.22686 C0.348973574,23.38686 0.16840414,22.47658 0.0829597002,21.43932 C0,20.43216 0,19.18784 0,17.6449 L0,12.85312 C0,12.102692 0,11.455318 0.0438624801,10.92238 C0.0902096998,10.359734 0.192598583,9.800476 0.469112457,9.263912 C0.86443188,8.49681 1.48493185,7.871346 2.24594569,7.472864 C2.77826511,7.194138 3.33308452,7.09093 3.89125116,7.044212 C4.39422335,7.0021 4.99993165,7.00007 5.69865384,7 Z M8.33333425,7 C8.33333425,4.68041 10.1987508,2.8 12.5000007,2.8 C14.8012506,2.8 16.6666671,4.68041 16.6666671,7 L8.33333425,7 Z M3.52643173,9.957626 C3.59616784,9.9211 3.73784839,9.866682 4.12114003,9.834608 C4.52107057,9.80112 5.04684832,9.8 5.86111216,9.8 L19.1388892,9.8 C19.9531947,9.8 20.4788891,9.80112 20.8788891,9.834608 C21.2622224,9.866682 21.4038891,9.9211 21.4736113,9.957626 C21.7272224,10.090444 21.9340279,10.298932 22.0658335,10.554642 C22.1020835,10.624936 22.1561113,10.76775 22.1879168,11.154108 C22.2211113,11.557238 22.2222224,12.087208 22.2222224,12.908 L22.2222224,17.584 C22.2222224,19.20212 22.2211113,20.32996 22.1487502,21.20762 C22.0779168,22.06848 21.9456946,22.5624 21.7530557,22.93606 C21.357778,23.70326 20.7373613,24.32864 19.9762503,24.72708 C19.6055559,24.92126 19.1155559,25.05454 18.2615281,25.12594 C17.3908338,25.19888 16.2719449,25.2 14.6666672,25.2 L10.3333341,25.2 C8.728112,25.2 7.60911207,25.19888 6.73845934,25.12594 C5.88441772,25.05454 5.39448719,24.92126 5.02372332,24.72708 C4.26270947,24.32864 3.6422095,23.70326 3.24689008,22.93606 C3.05429287,22.5624 2.92212621,22.06848 2.85119566,21.20762 C2.778904,20.32996 2.777779,19.20212 2.777779,17.584 L2.777779,12.908 C2.777779,12.087208 2.778904,11.557238 2.81211233,11.154108 C2.84394566,10.76775 2.89793177,10.624936 2.93415399,10.554642 C3.06591787,10.298932 3.27275119,10.090444 3.52643173,9.957626 Z" id="Shape"></path>
                </g>
            </g>
        </g>
    </g>
</svg>